include "hUGE.inc"

SECTION "song_hideout Song Data", ROMX

song_hideout::
db 6
dw order_cnt
dw order1, order2, order3, order4
dw duty_instruments, wave_instruments, noise_instruments
dw routines
dw waves

order_cnt: db 36
order1: dw P0,P4,P4,P4,P4,P4,P16,P20,P16,P20,P24,P24,P24,P24,P24,P24,P24,P32
order2: dw P1,P5,P9,P9,P13,P13,P9,P9,P9,P9,P25,P25,P25,P25,P25,P25,P29,P1
order3: dw P2,P2,P2,P2,P2,P2,P2,P2,P2,P2,P2,P2,P2,P2,P2,P2,P30,P30
order4: dw P1,P1,P11,P11,P11,P11,P11,P11,P11,P11,P11,P11,P11,P11,P11,P11,P31,P1

P0:
 dn D_5,2,$000
 dn ___,0,$000
 dn ___,0,$000
 dn ___,0,$000
 dn ___,0,$000
 dn ___,0,$000
 dn ___,0,$000
 dn ___,0,$000
 dn ___,0,$000
 dn ___,0,$000
 dn ___,0,$000
 dn ___,0,$000
 dn ___,0,$000
 dn ___,0,$000
 dn A#4,2,$000
 dn ___,0,$000
 dn ___,0,$000
 dn ___,0,$000
 dn ___,0,$000
 dn ___,0,$000
 dn ___,0,$000
 dn ___,0,$000
 dn ___,0,$000
 dn ___,0,$000
 dn ___,0,$000
 dn ___,0,$000
 dn ___,0,$000
 dn ___,0,$000
 dn G_4,2,$000
 dn ___,0,$000
 dn ___,0,$000
 dn ___,0,$000
 dn C#5,2,$000
 dn ___,0,$000
 dn ___,0,$000
 dn ___,0,$000
 dn ___,0,$000
 dn ___,0,$000
 dn ___,0,$000
 dn ___,0,$000
 dn ___,0,$000
 dn ___,0,$000
 dn ___,0,$000
 dn ___,0,$000
 dn ___,0,$000
 dn ___,0,$000
 dn A_4,2,$000
 dn ___,0,$000
 dn ___,0,$000
 dn ___,0,$000
 dn ___,0,$000
 dn ___,0,$000
 dn ___,0,$000
 dn ___,0,$000
 dn ___,0,$000
 dn ___,0,$000
 dn ___,0,$000
 dn ___,0,$000
 dn ___,0,$000
 dn ___,0,$000
 dn ___,0,$000
 dn ___,0,$000
 dn ___,0,$000
 dn ___,0,$000

P1:
 dn ___,0,$000
 dn ___,0,$000
 dn ___,0,$000
 dn ___,0,$000
 dn ___,0,$000
 dn ___,0,$000
 dn ___,0,$000
 dn ___,0,$000
 dn ___,0,$000
 dn ___,0,$000
 dn ___,0,$000
 dn ___,0,$000
 dn ___,0,$000
 dn ___,0,$000
 dn ___,0,$000
 dn ___,0,$000
 dn ___,0,$000
 dn ___,0,$000
 dn ___,0,$000
 dn ___,0,$000
 dn ___,0,$000
 dn ___,0,$000
 dn ___,0,$000
 dn ___,0,$000
 dn ___,0,$000
 dn ___,0,$000
 dn ___,0,$000
 dn ___,0,$000
 dn ___,0,$000
 dn ___,0,$000
 dn ___,0,$000
 dn ___,0,$000
 dn ___,0,$000
 dn ___,0,$000
 dn ___,0,$000
 dn ___,0,$000
 dn ___,0,$000
 dn ___,0,$000
 dn ___,0,$000
 dn ___,0,$000
 dn ___,0,$000
 dn ___,0,$000
 dn ___,0,$000
 dn ___,0,$000
 dn ___,0,$000
 dn ___,0,$000
 dn ___,0,$000
 dn ___,0,$000
 dn ___,0,$000
 dn ___,0,$000
 dn ___,0,$000
 dn ___,0,$000
 dn ___,0,$000
 dn ___,0,$000
 dn ___,0,$000
 dn ___,0,$000
 dn ___,0,$000
 dn ___,0,$000
 dn ___,0,$000
 dn ___,0,$000
 dn ___,0,$000
 dn ___,0,$000
 dn ___,0,$000
 dn ___,0,$000

P2:
 dn G_5,13,$2AA
 dn G_3,13,$000
 dn ___,0,$000
 dn ___,0,$000
 dn ___,0,$000
 dn ___,0,$000
 dn ___,0,$000
 dn ___,0,$000
 dn ___,0,$000
 dn ___,0,$000
 dn ___,0,$000
 dn ___,0,$000
 dn ___,0,$000
 dn ___,0,$000
 dn G_5,13,$2AA
 dn ___,0,$E00
 dn ___,0,$000
 dn ___,0,$000
 dn G_5,13,$2AA
 dn ___,0,$E00
 dn G_5,13,$2AA
 dn ___,0,$E00
 dn ___,0,$000
 dn ___,0,$000
 dn ___,0,$000
 dn ___,0,$000
 dn ___,0,$000
 dn ___,0,$000
 dn G_5,13,$2AA
 dn ___,0,$E00
 dn G_5,13,$2AA
 dn ___,0,$E00
 dn F#5,13,$2AA
 dn F#3,13,$000
 dn ___,0,$000
 dn ___,0,$000
 dn ___,0,$000
 dn ___,0,$000
 dn ___,0,$000
 dn ___,0,$000
 dn ___,0,$000
 dn ___,0,$000
 dn ___,0,$000
 dn ___,0,$000
 dn ___,0,$000
 dn ___,0,$000
 dn F#5,13,$2AA
 dn ___,0,$E00
 dn ___,0,$000
 dn ___,0,$000
 dn F#5,13,$2AA
 dn ___,0,$E00
 dn F#5,13,$2AA
 dn ___,0,$E00
 dn ___,0,$000
 dn ___,0,$000
 dn ___,0,$000
 dn ___,0,$000
 dn ___,0,$000
 dn ___,0,$000
 dn F#5,13,$2AA
 dn ___,0,$E00
 dn F#5,13,$2AA
 dn ___,0,$E00

P4:
 dn D_5,2,$000
 dn ___,0,$000
 dn ___,0,$000
 dn ___,0,$000
 dn ___,0,$000
 dn ___,0,$000
 dn ___,0,$000
 dn ___,0,$000
 dn ___,0,$000
 dn ___,0,$000
 dn ___,0,$000
 dn ___,0,$000
 dn ___,0,$000
 dn ___,0,$000
 dn A#4,2,$000
 dn ___,0,$000
 dn ___,0,$000
 dn ___,0,$000
 dn ___,0,$000
 dn ___,0,$000
 dn ___,0,$000
 dn ___,0,$000
 dn ___,0,$000
 dn ___,0,$000
 dn ___,0,$000
 dn ___,0,$000
 dn ___,0,$000
 dn ___,0,$000
 dn G_4,2,$000
 dn ___,0,$000
 dn ___,0,$000
 dn ___,0,$000
 dn C#5,2,$000
 dn ___,0,$000
 dn ___,0,$000
 dn ___,0,$000
 dn ___,0,$000
 dn ___,0,$000
 dn ___,0,$000
 dn ___,0,$000
 dn ___,0,$000
 dn ___,0,$000
 dn ___,0,$000
 dn ___,0,$000
 dn ___,0,$000
 dn ___,0,$000
 dn A_4,2,$000
 dn ___,0,$000
 dn ___,0,$000
 dn ___,0,$000
 dn ___,0,$000
 dn ___,0,$000
 dn ___,0,$000
 dn ___,0,$000
 dn ___,0,$000
 dn ___,0,$000
 dn ___,0,$000
 dn ___,0,$000
 dn ___,0,$000
 dn ___,0,$000
 dn C#6,5,$000
 dn ___,0,$000
 dn C#6,5,$000
 dn ___,0,$000

P5:
 dn ___,0,$E00
 dn ___,0,$000
 dn ___,0,$000
 dn ___,0,$000
 dn ___,0,$000
 dn ___,0,$000
 dn ___,0,$000
 dn ___,0,$000
 dn ___,0,$000
 dn ___,0,$000
 dn ___,0,$000
 dn ___,0,$000
 dn ___,0,$000
 dn ___,0,$000
 dn ___,0,$000
 dn ___,0,$000
 dn ___,0,$000
 dn ___,0,$000
 dn ___,0,$000
 dn ___,0,$000
 dn ___,0,$000
 dn ___,0,$000
 dn ___,0,$000
 dn ___,0,$000
 dn ___,0,$000
 dn ___,0,$000
 dn ___,0,$000
 dn ___,0,$000
 dn ___,0,$000
 dn ___,0,$000
 dn ___,0,$000
 dn ___,0,$000
 dn ___,0,$000
 dn ___,0,$000
 dn ___,0,$000
 dn ___,0,$000
 dn ___,0,$000
 dn ___,0,$000
 dn ___,0,$000
 dn ___,0,$000
 dn ___,0,$000
 dn ___,0,$000
 dn ___,0,$000
 dn ___,0,$000
 dn ___,0,$000
 dn ___,0,$000
 dn ___,0,$000
 dn ___,0,$000
 dn ___,0,$000
 dn ___,0,$000
 dn ___,0,$000
 dn ___,0,$000
 dn ___,0,$000
 dn ___,0,$000
 dn ___,0,$000
 dn ___,0,$000
 dn ___,0,$000
 dn ___,0,$000
 dn ___,0,$000
 dn ___,0,$000
 dn ___,0,$000
 dn ___,0,$000
 dn ___,0,$000
 dn ___,0,$000

P9:
 dn G_3,8,$000
 dn ___,0,$000
 dn ___,0,$000
 dn ___,0,$000
 dn A#3,8,$000
 dn ___,0,$000
 dn ___,0,$000
 dn ___,0,$000
 dn D_4,8,$000
 dn ___,0,$000
 dn ___,0,$000
 dn ___,0,$000
 dn G_3,8,$000
 dn ___,0,$000
 dn A#3,8,$000
 dn ___,0,$000
 dn ___,0,$000
 dn ___,0,$000
 dn D_4,8,$000
 dn ___,0,$000
 dn ___,0,$000
 dn ___,0,$000
 dn G_3,8,$000
 dn ___,0,$000
 dn A#3,8,$000
 dn ___,0,$000
 dn ___,0,$000
 dn ___,0,$000
 dn D_4,8,$000
 dn ___,0,$000
 dn ___,0,$000
 dn ___,0,$000
 dn F#3,8,$000
 dn ___,0,$000
 dn ___,0,$000
 dn ___,0,$000
 dn A_3,8,$000
 dn ___,0,$000
 dn ___,0,$000
 dn ___,0,$000
 dn C#4,8,$000
 dn ___,0,$000
 dn ___,0,$000
 dn ___,0,$000
 dn F#3,8,$000
 dn ___,0,$000
 dn A_3,8,$000
 dn ___,0,$000
 dn ___,0,$000
 dn ___,0,$000
 dn C#4,8,$000
 dn ___,0,$000
 dn ___,0,$000
 dn ___,0,$000
 dn F#3,8,$000
 dn ___,0,$000
 dn A_3,8,$000
 dn ___,0,$000
 dn ___,0,$000
 dn ___,0,$000
 dn C#4,8,$000
 dn ___,0,$000
 dn ___,0,$000
 dn ___,0,$000

P11:
 dn ___,0,$000
 dn ___,0,$000
 dn ___,0,$000
 dn ___,0,$000
 dn ___,0,$000
 dn ___,0,$000
 dn ___,0,$000
 dn ___,0,$000
 dn C_5,7,$000
 dn ___,0,$000
 dn ___,0,$000
 dn ___,0,$000
 dn ___,0,$000
 dn ___,0,$000
 dn ___,0,$000
 dn ___,0,$000
 dn ___,0,$000
 dn ___,0,$000
 dn ___,0,$000
 dn ___,0,$000
 dn ___,0,$000
 dn ___,0,$000
 dn ___,0,$000
 dn ___,0,$000
 dn C_5,7,$000
 dn ___,0,$000
 dn ___,0,$000
 dn ___,0,$000
 dn ___,0,$000
 dn ___,0,$000
 dn ___,0,$000
 dn ___,0,$000
 dn ___,0,$000
 dn ___,0,$000
 dn ___,0,$000
 dn ___,0,$000
 dn ___,0,$000
 dn ___,0,$000
 dn ___,0,$000
 dn ___,0,$000
 dn C_5,7,$000
 dn ___,0,$000
 dn ___,0,$000
 dn ___,0,$000
 dn ___,0,$000
 dn ___,0,$000
 dn ___,0,$000
 dn ___,0,$000
 dn ___,0,$000
 dn ___,0,$000
 dn ___,0,$000
 dn ___,0,$000
 dn ___,0,$000
 dn ___,0,$000
 dn ___,0,$000
 dn ___,0,$000
 dn C_5,7,$000
 dn ___,0,$000
 dn ___,0,$000
 dn ___,0,$000
 dn ___,0,$000
 dn ___,0,$000
 dn ___,0,$000
 dn ___,0,$000

P13:
 dn G_3,8,$000
 dn ___,0,$000
 dn A#3,8,$000
 dn ___,0,$000
 dn D_4,8,$000
 dn ___,0,$000
 dn A#4,8,$000
 dn ___,0,$000
 dn G_4,8,$000
 dn ___,0,$000
 dn F_4,8,$000
 dn ___,0,$000
 dn G_3,8,$000
 dn ___,0,$000
 dn A#3,8,$000
 dn ___,0,$000
 dn D_4,8,$000
 dn ___,0,$000
 dn A#4,8,$000
 dn ___,0,$000
 dn G_4,8,$000
 dn ___,0,$000
 dn G_3,8,$000
 dn ___,0,$000
 dn A#3,8,$000
 dn ___,0,$000
 dn D_4,8,$000
 dn ___,0,$000
 dn A#4,8,$000
 dn ___,0,$000
 dn G_4,8,$000
 dn ___,0,$000
 dn F#3,8,$000
 dn ___,0,$000
 dn A_3,8,$000
 dn ___,0,$000
 dn C#4,8,$000
 dn ___,0,$000
 dn A_4,8,$000
 dn ___,0,$000
 dn F#4,8,$000
 dn ___,0,$000
 dn E_4,8,$000
 dn ___,0,$000
 dn F#3,8,$000
 dn ___,0,$000
 dn A_3,8,$000
 dn ___,0,$000
 dn C#4,8,$000
 dn ___,0,$000
 dn A_4,8,$000
 dn ___,0,$000
 dn F#4,8,$000
 dn ___,0,$000
 dn F#3,8,$000
 dn ___,0,$000
 dn A_3,8,$000
 dn ___,0,$000
 dn C#4,8,$000
 dn ___,0,$000
 dn A_4,8,$000
 dn ___,0,$000
 dn F#4,8,$000
 dn ___,0,$000

P16:
 dn D_6,10,$441
 dn ___,0,$441
 dn ___,0,$441
 dn ___,0,$441
 dn ___,0,$441
 dn ___,0,$441
 dn ___,0,$441
 dn ___,0,$441
 dn ___,0,$441
 dn ___,0,$441
 dn ___,0,$441
 dn ___,0,$441
 dn ___,0,$441
 dn ___,0,$441
 dn G_6,10,$441
 dn ___,0,$441
 dn ___,0,$441
 dn ___,0,$441
 dn ___,0,$441
 dn ___,0,$441
 dn ___,0,$441
 dn ___,0,$441
 dn ___,0,$441
 dn ___,0,$441
 dn ___,0,$441
 dn ___,0,$441
 dn ___,0,$441
 dn ___,0,$441
 dn ___,0,$441
 dn ___,0,$441
 dn ___,0,$441
 dn ___,0,$441
 dn F#6,10,$441
 dn ___,0,$441
 dn ___,0,$441
 dn ___,0,$441
 dn ___,0,$441
 dn ___,0,$441
 dn ___,0,$441
 dn ___,0,$441
 dn ___,0,$441
 dn ___,0,$441
 dn ___,0,$441
 dn ___,0,$441
 dn ___,0,$441
 dn ___,0,$441
 dn C#6,10,$441
 dn ___,0,$441
 dn ___,0,$441
 dn ___,0,$441
 dn ___,0,$441
 dn ___,0,$441
 dn ___,0,$441
 dn ___,0,$441
 dn ___,0,$441
 dn ___,0,$441
 dn ___,0,$441
 dn ___,0,$441
 dn ___,0,$441
 dn ___,0,$441
 dn C#6,5,$000
 dn ___,0,$000
 dn C#6,5,$000
 dn ___,0,$000

P20:
 dn D_6,10,$441
 dn ___,0,$441
 dn ___,0,$441
 dn ___,0,$441
 dn ___,0,$441
 dn ___,0,$441
 dn ___,0,$441
 dn ___,0,$441
 dn ___,0,$441
 dn ___,0,$441
 dn ___,0,$441
 dn ___,0,$441
 dn ___,0,$441
 dn ___,0,$441
 dn G_6,10,$441
 dn ___,0,$441
 dn ___,0,$441
 dn ___,0,$441
 dn ___,0,$441
 dn ___,0,$441
 dn ___,0,$441
 dn ___,0,$441
 dn ___,0,$441
 dn ___,0,$441
 dn ___,0,$441
 dn ___,0,$441
 dn ___,0,$441
 dn ___,0,$441
 dn ___,0,$441
 dn ___,0,$441
 dn ___,0,$441
 dn ___,0,$441
 dn F#6,10,$441
 dn ___,0,$441
 dn ___,0,$441
 dn ___,0,$441
 dn ___,0,$441
 dn ___,0,$441
 dn ___,0,$441
 dn ___,0,$441
 dn ___,0,$441
 dn ___,0,$441
 dn ___,0,$441
 dn ___,0,$441
 dn ___,0,$441
 dn ___,0,$441
 dn ___,0,$441
 dn ___,0,$441
 dn ___,0,$441
 dn ___,0,$441
 dn ___,0,$441
 dn ___,0,$441
 dn ___,0,$441
 dn ___,0,$441
 dn ___,0,$441
 dn ___,0,$441
 dn ___,0,$441
 dn ___,0,$441
 dn ___,0,$441
 dn ___,0,$441
 dn ___,0,$000
 dn ___,0,$000
 dn ___,0,$000
 dn ___,0,$000

P24:
 dn G_4,9,$000
 dn ___,0,$000
 dn D_5,9,$000
 dn ___,0,$000
 dn A_4,9,$000
 dn ___,0,$000
 dn A#4,9,$000
 dn ___,0,$000
 dn D_5,9,$000
 dn ___,0,$000
 dn A#4,9,$000
 dn ___,0,$000
 dn A_4,9,$000
 dn ___,0,$000
 dn G_4,9,$000
 dn ___,0,$000
 dn G_4,9,$000
 dn ___,0,$000
 dn D_5,9,$000
 dn ___,0,$000
 dn A_4,9,$000
 dn ___,0,$000
 dn A#4,9,$000
 dn ___,0,$000
 dn D_5,9,$000
 dn ___,0,$000
 dn A#4,9,$000
 dn ___,0,$000
 dn A_4,9,$000
 dn ___,0,$000
 dn G_4,9,$000
 dn ___,0,$000
 dn F#4,9,$000
 dn ___,0,$000
 dn C#5,9,$000
 dn ___,0,$000
 dn G#4,9,$000
 dn ___,0,$000
 dn A_4,9,$000
 dn ___,0,$000
 dn C#5,9,$000
 dn ___,0,$000
 dn A_4,9,$000
 dn ___,0,$000
 dn G#4,9,$000
 dn ___,0,$000
 dn F#4,9,$000
 dn ___,0,$000
 dn F#4,9,$000
 dn ___,0,$000
 dn C#5,9,$000
 dn ___,0,$000
 dn G#4,9,$000
 dn ___,0,$000
 dn A_4,9,$000
 dn ___,0,$000
 dn C#5,9,$000
 dn ___,0,$000
 dn A_4,9,$000
 dn ___,0,$000
 dn G#4,9,$000
 dn ___,0,$000
 dn F#4,9,$000
 dn ___,0,$000

P25:
 dn G_3,5,$000
 dn ___,0,$000
 dn A#3,5,$000
 dn ___,0,$000
 dn D_4,5,$000
 dn ___,0,$000
 dn A#4,5,$000
 dn ___,0,$000
 dn G_4,5,$000
 dn ___,0,$000
 dn F_4,5,$000
 dn ___,0,$000
 dn G_3,5,$000
 dn ___,0,$000
 dn A#3,5,$000
 dn ___,0,$000
 dn D_4,5,$000
 dn ___,0,$000
 dn A#4,5,$000
 dn ___,0,$000
 dn G_4,5,$000
 dn ___,0,$000
 dn G_3,5,$000
 dn ___,0,$000
 dn A#3,5,$000
 dn ___,0,$000
 dn D_4,5,$000
 dn ___,0,$000
 dn A#4,5,$000
 dn ___,0,$000
 dn G_4,5,$000
 dn ___,0,$000
 dn F#3,5,$000
 dn ___,0,$000
 dn A_3,5,$000
 dn ___,0,$000
 dn C#4,5,$000
 dn ___,0,$000
 dn A_4,5,$000
 dn ___,0,$000
 dn F#4,5,$000
 dn ___,0,$000
 dn E_4,5,$000
 dn ___,0,$000
 dn F#3,5,$000
 dn ___,0,$000
 dn A_3,5,$000
 dn ___,0,$000
 dn C#4,5,$000
 dn ___,0,$000
 dn A_4,5,$000
 dn ___,0,$000
 dn F#4,5,$000
 dn ___,0,$000
 dn F#3,5,$000
 dn ___,0,$000
 dn A_3,5,$000
 dn ___,0,$000
 dn C#4,5,$000
 dn ___,0,$000
 dn A_4,5,$000
 dn ___,0,$000
 dn F#4,5,$000
 dn ___,0,$000

P29:
 dn G_3,5,$000
 dn ___,0,$000
 dn A#3,5,$000
 dn ___,0,$000
 dn D_4,5,$000
 dn ___,0,$000
 dn A#4,5,$000
 dn ___,0,$000
 dn G_4,5,$000
 dn ___,0,$000
 dn F_4,5,$000
 dn ___,0,$000
 dn G_3,5,$000
 dn ___,0,$000
 dn A#3,5,$000
 dn ___,0,$000
 dn D_4,5,$000
 dn ___,0,$000
 dn A#4,5,$000
 dn ___,0,$000
 dn G_4,5,$000
 dn ___,0,$000
 dn G_3,5,$000
 dn ___,0,$000
 dn A#3,5,$000
 dn ___,0,$000
 dn D_4,5,$000
 dn ___,0,$000
 dn A#4,5,$000
 dn ___,0,$000
 dn G_4,5,$000
 dn ___,0,$000
 dn F#3,5,$000
 dn ___,0,$000
 dn A_3,5,$000
 dn ___,0,$000
 dn C#4,5,$C07
 dn ___,0,$000
 dn A_4,5,$C07
 dn ___,0,$000
 dn F#4,5,$C06
 dn ___,0,$000
 dn E_4,5,$C06
 dn ___,0,$000
 dn F#3,5,$C05
 dn ___,0,$000
 dn A_3,5,$C05
 dn ___,0,$000
 dn C#4,5,$C04
 dn ___,0,$000
 dn A_4,5,$C04
 dn ___,0,$000
 dn F#4,5,$C03
 dn ___,0,$000
 dn F#3,5,$C03
 dn ___,0,$000
 dn A_3,5,$C02
 dn ___,0,$000
 dn C#4,5,$C02
 dn ___,0,$000
 dn A_4,5,$C01
 dn ___,0,$000
 dn F#4,5,$C01
 dn ___,0,$000

P30:
 dn G_5,13,$2AA
 dn G_3,13,$000
 dn ___,0,$000
 dn ___,0,$000
 dn ___,0,$000
 dn ___,0,$000
 dn ___,0,$000
 dn ___,0,$000
 dn ___,0,$000
 dn ___,0,$000
 dn ___,0,$000
 dn ___,0,$000
 dn ___,0,$000
 dn ___,0,$000
 dn G_5,13,$2AA
 dn ___,0,$E00
 dn ___,0,$000
 dn ___,0,$000
 dn G_5,13,$2AA
 dn ___,0,$E00
 dn G_5,13,$2AA
 dn ___,0,$E00
 dn ___,0,$000
 dn ___,0,$000
 dn ___,0,$000
 dn ___,0,$000
 dn ___,0,$000
 dn ___,0,$000
 dn G_5,13,$2AA
 dn ___,0,$E00
 dn G_5,13,$2AA
 dn ___,0,$E00
 dn F#5,13,$2AA
 dn F#3,13,$000
 dn ___,0,$000
 dn ___,0,$000
 dn ___,0,$000
 dn ___,0,$000
 dn ___,0,$000
 dn ___,0,$000
 dn ___,0,$000
 dn ___,0,$000
 dn ___,0,$000
 dn ___,0,$000
 dn ___,0,$000
 dn ___,0,$000
 dn F#5,13,$2AA
 dn ___,0,$E00
 dn ___,0,$000
 dn ___,0,$000
 dn F#5,13,$2AA
 dn ___,0,$E00
 dn F#5,13,$2AA
 dn ___,0,$E00
 dn ___,0,$000
 dn ___,0,$000
 dn ___,0,$000
 dn ___,0,$000
 dn ___,0,$000
 dn ___,0,$000
 dn ___,0,$000
 dn ___,0,$000
 dn ___,0,$000
 dn ___,0,$000

P31:
 dn ___,0,$000
 dn ___,0,$000
 dn ___,0,$000
 dn ___,0,$000
 dn ___,0,$000
 dn ___,0,$000
 dn ___,0,$000
 dn ___,0,$000
 dn C_5,7,$000
 dn ___,0,$000
 dn ___,0,$000
 dn ___,0,$000
 dn ___,0,$000
 dn ___,0,$000
 dn ___,0,$000
 dn ___,0,$000
 dn ___,0,$000
 dn ___,0,$000
 dn ___,0,$000
 dn ___,0,$000
 dn ___,0,$000
 dn ___,0,$000
 dn ___,0,$000
 dn ___,0,$000
 dn C_5,7,$000
 dn ___,0,$000
 dn ___,0,$000
 dn ___,0,$000
 dn ___,0,$000
 dn ___,0,$000
 dn ___,0,$000
 dn ___,0,$000
 dn ___,0,$000
 dn ___,0,$000
 dn ___,0,$000
 dn ___,0,$000
 dn ___,0,$000
 dn ___,0,$000
 dn ___,0,$000
 dn ___,0,$000
 dn C_5,7,$000
 dn ___,0,$000
 dn ___,0,$000
 dn ___,0,$000
 dn ___,0,$000
 dn ___,0,$000
 dn ___,0,$000
 dn ___,0,$000
 dn ___,0,$000
 dn ___,0,$000
 dn ___,0,$000
 dn ___,0,$000
 dn ___,0,$000
 dn ___,0,$000
 dn ___,0,$000
 dn ___,0,$000
 dn ___,0,$000
 dn ___,0,$000
 dn ___,0,$000
 dn ___,0,$000
 dn ___,0,$000
 dn ___,0,$000
 dn ___,0,$000
 dn ___,0,$000

P32:
 dn G_4,9,$000
 dn ___,0,$000
 dn D_5,9,$000
 dn ___,0,$000
 dn A_4,9,$C0A
 dn ___,0,$000
 dn A#4,9,$C0A
 dn ___,0,$000
 dn D_5,9,$C09
 dn ___,0,$000
 dn A#4,9,$C09
 dn ___,0,$000
 dn A_4,9,$C08
 dn ___,0,$000
 dn G_4,9,$C08
 dn ___,0,$000
 dn G_4,9,$C07
 dn ___,0,$000
 dn D_5,9,$C07
 dn ___,0,$000
 dn A_4,9,$C06
 dn ___,0,$000
 dn A#4,9,$C06
 dn ___,0,$000
 dn D_5,9,$C05
 dn ___,0,$000
 dn A#4,9,$C05
 dn ___,0,$000
 dn A_4,9,$C04
 dn ___,0,$000
 dn G_4,9,$C04
 dn ___,0,$000
 dn F#4,9,$C03
 dn ___,0,$000
 dn C#5,9,$C03
 dn ___,0,$000
 dn G#4,9,$C02
 dn ___,0,$000
 dn A_4,9,$C02
 dn ___,0,$000
 dn C#5,9,$C01
 dn ___,0,$000
 dn A_4,9,$C01
 dn ___,0,$000
 dn G#4,9,$E00
 dn ___,0,$000
 dn ___,0,$000
 dn ___,0,$000
 dn ___,0,$000
 dn ___,0,$000
 dn ___,0,$000
 dn ___,0,$000
 dn ___,0,$000
 dn ___,0,$000
 dn ___,0,$000
 dn ___,0,$000
 dn ___,0,$000
 dn ___,0,$000
 dn ___,0,$000
 dn ___,0,$000
 dn ___,0,$000
 dn ___,0,$000
 dn ___,0,$000
 dn ___,0,$B05

itNoiseSP1:
 dn 68,0,$000
 dn 68,0,$000
 dn 68,0,$000
 dn 68,0,$000
 dn 68,0,$000
 dn 68,6,$000
 dn ___,0,$000
 dn ___,0,$000
 dn ___,0,$000
 dn ___,0,$000
 dn ___,0,$000
 dn ___,0,$000
 dn ___,0,$000
 dn ___,0,$000
 dn ___,0,$000
 dn ___,0,$000
 dn ___,0,$000
 dn ___,0,$000
 dn ___,0,$000
 dn ___,0,$000
 dn ___,0,$000
 dn ___,0,$000
 dn ___,0,$000
 dn ___,0,$000
 dn ___,0,$000
 dn ___,0,$000
 dn ___,0,$000
 dn ___,0,$000
 dn ___,0,$000
 dn ___,0,$000
 dn ___,0,$000
 dn ___,1,$000

itNoiseSP2:
 dn 67,0,$000
 dn 67,0,$000
 dn 67,0,$000
 dn 67,0,$000
 dn 67,0,$000
 dn 67,6,$000
 dn ___,0,$000
 dn ___,0,$000
 dn ___,0,$000
 dn ___,0,$000
 dn ___,0,$000
 dn ___,0,$000
 dn ___,0,$000
 dn ___,0,$000
 dn ___,0,$000
 dn ___,0,$000
 dn ___,0,$000
 dn ___,0,$000
 dn ___,0,$000
 dn ___,0,$000
 dn ___,0,$000
 dn ___,0,$000
 dn ___,0,$000
 dn ___,0,$000
 dn ___,0,$000
 dn ___,0,$000
 dn ___,0,$000
 dn ___,0,$000
 dn ___,0,$000
 dn ___,0,$000
 dn ___,0,$000
 dn ___,1,$000

itNoiseSP3:
 dn 64,0,$000
 dn 64,0,$000
 dn 64,0,$000
 dn 64,0,$000
 dn 64,0,$000
 dn 64,6,$000
 dn ___,0,$000
 dn ___,0,$000
 dn ___,0,$000
 dn ___,0,$000
 dn ___,0,$000
 dn ___,0,$000
 dn ___,0,$000
 dn ___,0,$000
 dn ___,0,$000
 dn ___,0,$000
 dn ___,0,$000
 dn ___,0,$000
 dn ___,0,$000
 dn ___,0,$000
 dn ___,0,$000
 dn ___,0,$000
 dn ___,0,$000
 dn ___,0,$000
 dn ___,0,$000
 dn ___,0,$000
 dn ___,0,$000
 dn ___,0,$000
 dn ___,0,$000
 dn ___,0,$000
 dn ___,0,$000
 dn ___,1,$000

itNoiseSP4:
 dn 68,0,$000
 dn 68,0,$000
 dn 68,0,$000
 dn 68,0,$000
 dn 68,0,$000
 dn 68,6,$000
 dn ___,0,$000
 dn ___,0,$000
 dn ___,0,$000
 dn ___,0,$000
 dn ___,0,$000
 dn ___,0,$000
 dn ___,0,$000
 dn ___,0,$000
 dn ___,0,$000
 dn ___,0,$000
 dn ___,0,$000
 dn ___,0,$000
 dn ___,0,$000
 dn ___,0,$000
 dn ___,0,$000
 dn ___,0,$000
 dn ___,0,$000
 dn ___,0,$000
 dn ___,0,$000
 dn ___,0,$000
 dn ___,0,$000
 dn ___,0,$000
 dn ___,0,$000
 dn ___,0,$000
 dn ___,0,$000
 dn ___,1,$000

itNoiseSP5:
 dn 60,0,$000
 dn 60,0,$000
 dn 60,0,$000
 dn 60,0,$000
 dn 60,0,$000
 dn 60,6,$000
 dn ___,0,$000
 dn ___,0,$000
 dn ___,0,$000
 dn ___,0,$000
 dn ___,0,$000
 dn ___,0,$000
 dn ___,0,$000
 dn ___,0,$000
 dn ___,0,$000
 dn ___,0,$000
 dn ___,0,$000
 dn ___,0,$000
 dn ___,0,$000
 dn ___,0,$000
 dn ___,0,$000
 dn ___,0,$000
 dn ___,0,$000
 dn ___,0,$000
 dn ___,0,$000
 dn ___,0,$000
 dn ___,0,$000
 dn ___,0,$000
 dn ___,0,$000
 dn ___,0,$000
 dn ___,0,$000
 dn ___,1,$000

itNoiseSP6:
 dn 52,0,$000
 dn 52,0,$000
 dn 52,0,$000
 dn 52,0,$000
 dn 52,0,$000
 dn 52,6,$000
 dn ___,0,$000
 dn ___,0,$000
 dn ___,0,$000
 dn ___,0,$000
 dn ___,0,$000
 dn ___,0,$000
 dn ___,0,$000
 dn ___,0,$000
 dn ___,0,$000
 dn ___,0,$000
 dn ___,0,$000
 dn ___,0,$000
 dn ___,0,$000
 dn ___,0,$000
 dn ___,0,$000
 dn ___,0,$000
 dn ___,0,$000
 dn ___,0,$000
 dn ___,0,$000
 dn ___,0,$000
 dn ___,0,$000
 dn ___,0,$000
 dn ___,0,$000
 dn ___,0,$000
 dn ___,0,$000
 dn ___,1,$000

itNoiseSP7:
 dn 58,0,$000
 dn 59,2,$000
 dn ___,0,$000
 dn ___,0,$000
 dn ___,0,$000
 dn ___,0,$000
 dn ___,0,$000
 dn ___,0,$000
 dn ___,0,$000
 dn ___,0,$000
 dn ___,0,$000
 dn ___,0,$000
 dn ___,0,$000
 dn ___,0,$000
 dn ___,0,$000
 dn ___,0,$000
 dn ___,0,$000
 dn ___,0,$000
 dn ___,0,$000
 dn ___,0,$000
 dn ___,0,$000
 dn ___,0,$000
 dn ___,0,$000
 dn ___,0,$000
 dn ___,0,$000
 dn ___,0,$000
 dn ___,0,$000
 dn ___,0,$000
 dn ___,0,$000
 dn ___,0,$000
 dn ___,0,$000
 dn ___,1,$000

duty_instruments:
itSquareinst1:
db 0
db 64
db 181
dw 0
db 128

itSquareinst2:
db 0
db 128
db 181
dw 0
db 128

itSquareinst3:
db 0
db 0
db 9
dw 0
db 192

itSquareinst4:
db 0
db 48
db 184
dw 0
db 192

itSquareinst5:
db 0
db 112
db 136
dw 0
db 192

itSquareinst6:
db 0
db 176
db 184
dw 0
db 192

itSquareinst7:
db 0
db 0
db 184
dw 0
db 128

itSquareinst8:
db 0
db 64
db 152
dw 0
db 128

itSquareinst9:
db 0
db 128
db 184
dw 0
db 128

itSquareinst10:
db 0
db 64
db 136
dw 0
db 128



wave_instruments:
itWaveinst1:
db 128
db 32
db 1
dw 0
db 192

itWaveinst2:
db 128
db 32
db 2
dw 0
db 192

itWaveinst3:
db 128
db 32
db 3
dw 0
db 192

itWaveinst4:
db 128
db 32
db 4
dw 0
db 192

itWaveinst5:
db 128
db 32
db 5
dw 0
db 192

itWaveinst6:
db 128
db 32
db 6
dw 0
db 192

itWaveinst7:
db 0
db 32
db 7
dw 0
db 128

itWaveinst8:
db 0
db 32
db 8
dw 0
db 128

itWaveinst9:
db 0
db 32
db 9
dw 0
db 128

itWaveinst10:
db 0
db 32
db 10
dw 0
db 128

itWaveinst11:
db 0
db 32
db 11
dw 0
db 128

itWaveinst12:
db 0
db 32
db 12
dw 0
db 128

itWaveinst13:
db 0
db 32
db 13
dw 0
db 128



noise_instruments:
itNoiseinst1:
db 145
dw itNoiseSP1
db 112
ds 2

itNoiseinst2:
db 145
dw itNoiseSP2
db 96
ds 2

itNoiseinst3:
db 145
dw itNoiseSP3
db 0
ds 2

itNoiseinst4:
db 146
dw itNoiseSP4
db 0
ds 2

itNoiseinst5:
db 148
dw itNoiseSP5
db 0
ds 2

itNoiseinst6:
db 148
dw itNoiseSP6
db 0
ds 2

itNoiseinst7:
db 177
dw itNoiseSP7
db 0
ds 2



routines:
__hUGE_Routine_0:

__end_hUGE_Routine_0:
ret

__hUGE_Routine_1:

__end_hUGE_Routine_1:
ret

__hUGE_Routine_2:

__end_hUGE_Routine_2:
ret

__hUGE_Routine_3:

__end_hUGE_Routine_3:
ret

__hUGE_Routine_4:

__end_hUGE_Routine_4:
ret

__hUGE_Routine_5:

__end_hUGE_Routine_5:
ret

__hUGE_Routine_6:

__end_hUGE_Routine_6:
ret

__hUGE_Routine_7:

__end_hUGE_Routine_7:
ret

__hUGE_Routine_8:

__end_hUGE_Routine_8:
ret

__hUGE_Routine_9:

__end_hUGE_Routine_9:
ret

__hUGE_Routine_10:

__end_hUGE_Routine_10:
ret

__hUGE_Routine_11:

__end_hUGE_Routine_11:
ret

__hUGE_Routine_12:

__end_hUGE_Routine_12:
ret

__hUGE_Routine_13:

__end_hUGE_Routine_13:
ret

__hUGE_Routine_14:

__end_hUGE_Routine_14:
ret

__hUGE_Routine_15:

__end_hUGE_Routine_15:
ret

waves:
wave0: db 136,136,136,136,136,136,136,136,136,136,136,136,136,136,136,136
wave1: db 255,255,0,0,0,0,0,0,0,0,0,0,0,0,0,0
wave2: db 255,255,255,255,0,0,0,0,0,0,0,0,0,0,0,0
wave3: db 255,255,255,255,255,0,0,0,0,0,0,0,0,0,0,0
wave4: db 255,255,255,255,255,255,0,0,0,0,0,0,0,0,0,0
wave5: db 255,255,255,255,255,255,255,0,0,0,0,0,0,0,0,0
wave6: db 255,255,255,255,255,255,255,255,0,0,0,0,0,0,0,0
wave7: db 204,204,204,204,204,204,204,204,51,51,51,51,51,51,51,51
wave8: db 170,170,170,170,170,170,170,170,85,85,85,85,85,85,85,85
wave9: db 136,136,136,136,136,136,136,136,119,119,119,119,119,119,119,119
wave10: db 255,255,204,204,255,255,204,204,0,0,51,51,0,0,51,51
wave11: db 254,220,186,152,118,84,50,16,1,35,69,103,137,171,205,239
wave12: db 255,255,186,152,169,135,50,16,52,86,69,103,188,222,205,239
wave13: db 255,238,221,204,187,170,153,136,119,102,85,68,51,34,17,0

